<svg width="168" height="30" viewBox="0 0 168 30" fill="none" xmlns="http://www.w3.org/2000/svg">
<rect width="168" height="30" fill="#1E1E1E"/>
<g filter="url(#filter0_d_0_1)">
<path d="M-432 -68C-432 -73.5229 -427.523 -78 -422 -78H564C569.523 -78 574 -73.5228 574 -68V578C574 583.523 569.523 588 564 588H-422C-427.523 588 -432 583.523 -432 578V-68Z" fill="white"/>
</g>
<path d="M168 -1H130V30H168V-1Z" fill="#FF3D00"/>
<path d="M8.54834 15.8902V28.5828H2.79278V15.8902H0.714355V11.4285H2.79278V8.04392C2.79278 6.12104 2.99274 3.92874 4.79125 2.08274C5.95031 0.889926 7.58908 0.121094 9.78751 0.121094C11.0664 0.121094 12.1055 0.351746 13.065 0.697719V5.54408C12.4256 5.15935 11.586 4.89026 10.8665 4.89026C9.9873 4.89026 9.42764 5.27499 9.18779 5.58252C8.54834 6.39044 8.54834 7.73655 8.54834 8.54398V11.4287H13.1049V15.8903H8.54834V15.8902Z" fill="#ABABAB"/>
<path d="M29.5958 26.3904C28.2523 27.9289 25.9686 29.1601 23.0464 29.1601C20.1245 29.1601 17.8405 27.929 16.497 26.3904C14.9858 24.6594 14.2467 22.1979 14.2467 20.006C14.2467 17.8136 14.9858 15.3521 16.497 13.6211C17.8405 12.0826 20.1245 10.852 23.0464 10.852C25.9686 10.852 28.2523 12.0824 29.5958 13.6211C31.1073 15.3521 31.8461 17.8138 31.8461 20.006C31.8461 22.198 31.1073 24.6596 29.5958 26.3904ZM20.3261 16.7749C19.6208 17.5826 19.2178 18.6209 19.2178 20.0059C19.2178 21.5828 19.755 22.5826 20.3261 23.2364C20.9305 23.9287 21.8038 24.4674 23.08 24.4674C24.1549 24.4674 25.0618 24.0442 25.7672 23.2364C26.4722 22.4285 26.8754 21.3904 26.8754 20.0059C26.8754 18.6209 26.4722 17.5826 25.7672 16.7749C25.0618 15.9674 24.1549 15.5444 23.0466 15.5444C21.9382 15.5444 21.0313 15.9674 20.3263 16.7749H20.3261Z" fill="#ABABAB"/>
<path d="M40.0417 19.2375L34.0969 11.4295H40.2767L43.0645 15.3912L45.8522 11.4295H52.0321L46.0874 19.2375L53.409 28.5837H47.1618L43.0645 23.0451L38.967 28.5837H32.7199L40.0417 19.2375Z" fill="#ABABAB"/>
<path d="M55.3566 11.4283H60.1928V13.4284C61.4355 11.2749 63.2492 11.0052 64.3912 11.0052C65.0295 11.0052 66.205 11.0824 67.2126 11.7748C67.985 12.2747 68.6233 13.121 69.0261 14.1596C69.3957 13.4669 69.9666 12.6594 70.9408 11.967C71.9819 11.236 72.9559 11.0052 74.1314 11.0052C75.9453 11.0052 77.4228 11.6207 78.3298 12.6211C79.7739 14.1981 79.8748 16.5055 79.8748 17.7366V28.5826H75.0383V19.8901C75.0383 19.0055 75.0383 17.4669 74.4 16.5438C73.997 15.9672 73.3592 15.6207 72.6537 15.6207C71.8475 15.6207 71.1756 16.0439 70.7728 16.6594C70.1345 17.5825 70.0338 18.9286 70.0338 20.0441V28.5824H65.1976V19.6592C65.1976 18.5053 65.164 17.159 64.4251 16.3128C63.9213 15.7362 63.3168 15.6206 62.813 15.6206C62.1747 15.6206 61.604 15.8131 61.1337 16.3128C60.2267 17.3131 60.1931 19.236 60.1931 19.8131V28.5824H55.357V11.4282L55.3566 11.4283Z" fill="#ABABAB"/>
<path d="M86.4252 0.888565C88.0038 0.888565 89.2466 2.31203 89.2466 4.11974C89.2466 5.9273 88.0038 7.35028 86.4252 7.35028C84.8466 7.35028 83.6041 5.9273 83.6041 4.11974C83.6041 2.31203 84.8466 0.888565 86.4252 0.888565ZM89.2466 11.7568V28.9111L84.0072 28.5814V11.4272L89.2466 11.7568Z" fill="#ABABAB"/>
<path d="M92.9398 11.427H97.7759V13.4655C99.254 11.3118 101.001 10.9653 102.411 10.9653C103.721 10.9653 105.434 11.2346 106.71 12.6963C108.121 14.3117 108.221 16.35 108.221 17.7352V28.5812H103.385V19.7737C103.385 18.6583 103.352 17.2348 102.579 16.3502C102.209 15.927 101.605 15.581 100.732 15.581C99.724 15.581 99.0857 16.0427 98.7165 16.5041C97.9102 17.4274 97.7759 18.6583 97.7759 19.7737V28.5812H92.9398V11.427Z" fill="#ABABAB"/>
<path d="M128.307 28.5844H123.47V26.5076C122.732 27.7381 121.388 29.1615 118.735 29.1615C116.518 29.1615 114.906 28.3536 113.596 26.815C112.051 25.0455 111.245 22.5842 111.245 19.9301C111.245 17.0843 112.152 14.7377 113.596 13.1608C114.906 11.7379 116.753 10.8532 118.802 10.8532C120.448 10.8532 122.262 11.4688 123.471 13.3532V0.545425H128.307V28.5841L128.307 28.5844ZM117.391 16.7766C116.686 17.5461 116.216 18.6615 116.216 20.0461C116.216 21.3154 116.686 22.4302 117.391 23.1999C118.13 24.0078 119.071 24.392 119.911 24.392C120.817 24.392 121.892 23.9689 122.665 23.1231C123.236 22.5076 123.773 21.469 123.773 20.0462C123.773 18.5843 123.269 17.5845 122.698 16.8923C121.926 15.9692 121.019 15.6229 119.978 15.6229C119.004 15.6229 118.164 15.9304 117.391 16.7768V16.7766Z" fill="#ABABAB"/>
<path d="M147.688 20.9677H136.504C136.504 21.8908 136.806 23.1217 137.411 23.8909C138.149 24.814 139.157 24.9679 139.896 24.9679C140.601 24.9679 141.34 24.8138 141.844 24.4678C141.911 24.4289 142.482 24.0064 142.885 23.0444L147.453 23.5832C146.781 26.0058 145.438 27.2752 144.565 27.8909C143.12 28.8905 141.508 29.1603 139.829 29.1603C137.578 29.1603 135.597 28.6987 133.85 26.6986C132.54 25.1984 131.6 22.9292 131.6 20.0828C131.6 17.6212 132.372 15.0829 133.884 13.3135C135.697 11.2364 137.948 10.852 139.627 10.852C141.307 10.852 143.725 11.1979 145.572 13.4287C147.352 15.5827 147.688 18.275 147.688 20.3901V20.9674V20.9677ZM143.221 17.6598C143.187 17.5057 142.952 16.4294 142.247 15.6597C141.71 15.0831 140.937 14.6984 139.963 14.6984C138.72 14.6984 137.981 15.2755 137.511 15.8138C137.142 16.2753 136.806 16.8907 136.671 17.6598H143.221Z" fill="white"/>
<path d="M167.033 28.5844H162.197V26.5076C161.458 27.7381 160.114 29.1615 157.462 29.1615C155.244 29.1615 153.633 28.3536 152.323 26.815C150.778 25.0455 149.972 22.5842 149.972 19.9301C149.972 17.0843 150.878 14.7377 152.323 13.1608C153.633 11.7379 155.48 10.8532 157.529 10.8532C159.174 10.8532 160.988 11.4688 162.197 13.3532V0.545425H167.033V28.5841L167.033 28.5844ZM156.118 16.7766C155.412 17.5461 154.942 18.6615 154.942 20.0461C154.942 21.3154 155.412 22.4302 156.118 23.1999C156.857 24.0078 157.797 24.392 158.637 24.392C159.543 24.392 160.618 23.9689 161.391 23.1231C161.962 22.5076 162.499 21.469 162.499 20.0462C162.499 18.5843 161.995 17.5845 161.424 16.8923C160.652 15.9692 159.745 15.6229 158.704 15.6229C157.73 15.6229 156.89 15.9304 156.118 16.7768V16.7766Z" fill="white"/>
<defs>
<filter id="filter0_d_0_1" x="-476" y="-118" width="1094" height="754" filterUnits="userSpaceOnUse" color-interpolation-filters="sRGB">
<feFlood flood-opacity="0" result="BackgroundImageFix"/>
<feColorMatrix in="SourceAlpha" type="matrix" values="0 0 0 0 0 0 0 0 0 0 0 0 0 0 0 0 0 0 127 0" result="hardAlpha"/>
<feOffset dy="4"/>
<feGaussianBlur stdDeviation="22"/>
<feComposite in2="hardAlpha" operator="out"/>
<feColorMatrix type="matrix" values="0 0 0 0 0 0 0 0 0 0 0 0 0 0 0 0 0 0 0.25 0"/>
<feBlend mode="normal" in2="BackgroundImageFix" result="effect1_dropShadow_0_1"/>
<feBlend mode="normal" in="SourceGraphic" in2="effect1_dropShadow_0_1" result="shape"/>
</filter>
</defs>
</svg>
